<?xml version="1.0" standalone="no"?>
<!DOCTYPE svg PUBLIC "-//W3C//DTD SVG 20010904//EN"
 "http://www.w3.org/TR/2001/REC-SVG-20010904/DTD/svg10.dtd">
<svg version="1.0" xmlns="http://www.w3.org/2000/svg"
 width="333.000000pt" height="333.000000pt" viewBox="0 0 333.000000 333.000000"
 preserveAspectRatio="xMidYMid meet">
<metadata>
Created by potrace 1.11, written by Peter Selinger 2001-2013
</metadata>
<g transform="translate(0.000000,333.000000) scale(0.100000,-0.100000)"
fill="#000000" stroke="none">
<path d="M1475 3320 c-99 -15 -131 -21 -210 -40 -440 -104 -841 -413 -1062
-820 -74 -135 -149 -340 -167 -454 -4 -22 -8 -48 -11 -60 -15 -64 -17 -96 -19
-251 -3 -179 8 -287 44 -435 150 -605 646 -1088 1254 -1219 146 -32 188 -36
376 -35 159 1 249 10 370 39 51 12 55 14 55 15 0 1 10 3 23 6 42 8 216 76 287
112 164 85 295 181 425 312 247 247 404 549 466 893 21 118 26 373 9 497 -36
265 -123 497 -270 714 -77 114 -88 127 -205 245 -241 245 -549 406 -893 467
-100 18 -388 26 -472 14z"/>
</g>
</svg>
